<?xml version="1.0" encoding="UTF-8" standalone="no"?><svg xmlns="http://www.w3.org/2000/svg" xmlns:xlink="http://www.w3.org/1999/xlink" contentStyleType="text/css" height="787px" preserveAspectRatio="none" style="width:1792px;height:787px;background:#00000000;" version="1.1" viewBox="0 0 1792 787" width="1792px" zoomAndPan="magnify"><defs/><g><!--MD5=[3fc59b17a2df0e8aa43d25b99d46893c]
cluster User Interface--><g id="cluster_User Interface"><path d="M13.5,266 L127.5,266 A3.75,3.75 0 0 1 130,268.5 L137,288.2969 L851.5,288.2969 A2.5,2.5 0 0 1 854,290.7969 L854,360.5 A2.5,2.5 0 0 1 851.5,363 L13.5,363 A2.5,2.5 0 0 1 11,360.5 L11,268.5 A2.5,2.5 0 0 1 13.5,266 " fill="#FFFFFF" style="stroke:#000000;stroke-width:1.5;"/><line style="stroke:#000000;stroke-width:1.5;" x1="11" x2="137" y1="288.2969" y2="288.2969"/><text fill="#000000" font-family="sans-serif" font-size="14" font-weight="bold" lengthAdjust="spacing" textLength="113" x="15" y="280.9951">User Interface</text></g><!--MD5=[88b2fbc4765a7348aeb862e3684516e7]
cluster Module Interface--><g id="cluster_Module Interface"><path d="M8.5,136 L142.5,136 A3.75,3.75 0 0 1 145,138.5 L152,158.2969 L1140.5,158.2969 A2.5,2.5 0 0 1 1143,160.7969 L1143,230.5 A2.5,2.5 0 0 1 1140.5,233 L8.5,233 A2.5,2.5 0 0 1 6,230.5 L6,138.5 A2.5,2.5 0 0 1 8.5,136 " fill="#FFFFFF" style="stroke:#000000;stroke-width:1.5;"/><line style="stroke:#000000;stroke-width:1.5;" x1="6" x2="152" y1="158.2969" y2="158.2969"/><text fill="#000000" font-family="sans-serif" font-size="14" font-weight="bold" lengthAdjust="spacing" textLength="133" x="10" y="150.9951">Module Interface</text></g><!--MD5=[5504fa312fffe6cf64a79e8b6ce6feb2]
cluster Core Logic--><g id="cluster_Core Logic"><path d="M1089.5,266 L1175.5,266 A3.75,3.75 0 0 1 1178,268.5 L1185,288.2969 L1427.5,288.2969 A2.5,2.5 0 0 1 1430,290.7969 L1430,647.5 A2.5,2.5 0 0 1 1427.5,650 L1089.5,650 A2.5,2.5 0 0 1 1087,647.5 L1087,268.5 A2.5,2.5 0 0 1 1089.5,266 " fill="#FFFFFF" style="stroke:#000000;stroke-width:1.5;"/><line style="stroke:#000000;stroke-width:1.5;" x1="1087" x2="1185" y1="288.2969" y2="288.2969"/><text fill="#000000" font-family="sans-serif" font-size="14" font-weight="bold" lengthAdjust="spacing" textLength="85" x="1091" y="280.9951">Core Logic</text></g><!--MD5=[915f6a2b4bff9d90dc7327d570275f1b]
cluster Configuration--><g id="cluster_Configuration"><path d="M1601.5,683 L1709.5,683 A3.75,3.75 0 0 1 1712,685.5 L1719,705.2969 L1782.5,705.2969 A2.5,2.5 0 0 1 1785,707.7969 L1785,777.5 A2.5,2.5 0 0 1 1782.5,780 L1601.5,780 A2.5,2.5 0 0 1 1599,777.5 L1599,685.5 A2.5,2.5 0 0 1 1601.5,683 " fill="#FFFFFF" style="stroke:#000000;stroke-width:1.5;"/><line style="stroke:#000000;stroke-width:1.5;" x1="1599" x2="1719" y1="705.2969" y2="705.2969"/><text fill="#000000" font-family="sans-serif" font-size="14" font-weight="bold" lengthAdjust="spacing" textLength="107" x="1603" y="697.9951">Configuration</text></g><!--MD5=[085256948e54d15b90515bb21ce5617f]
cluster Libraries--><g id="cluster_Libraries"><path d="M115.5,553 L185.5,553 A3.75,3.75 0 0 1 188,555.5 L195,575.2969 L465.5,575.2969 A2.5,2.5 0 0 1 468,577.7969 L468,777.5 A2.5,2.5 0 0 1 465.5,780 L115.5,780 A2.5,2.5 0 0 1 113,777.5 L113,555.5 A2.5,2.5 0 0 1 115.5,553 " fill="#FFFFFF" style="stroke:#000000;stroke-width:1.5;"/><line style="stroke:#000000;stroke-width:1.5;" x1="113" x2="195" y1="575.2969" y2="575.2969"/><text fill="#000000" font-family="sans-serif" font-size="14" font-weight="bold" lengthAdjust="spacing" textLength="69" x="117" y="567.9951">Libraries</text></g><!--MD5=[3677e04d0c0851b6fbbe63f352746ba7]
cluster Excel Integration--><g id="cluster_Excel Integration"><path d="M693.5,6 L826.5,6 A3.75,3.75 0 0 1 829,8.5 L836,28.2969 L1178.5,28.2969 A2.5,2.5 0 0 1 1181,30.7969 L1181,100.5 A2.5,2.5 0 0 1 1178.5,103 L693.5,103 A2.5,2.5 0 0 1 691,100.5 L691,8.5 A2.5,2.5 0 0 1 693.5,6 " fill="#FFFFFF" style="stroke:#000000;stroke-width:1.5;"/><line style="stroke:#000000;stroke-width:1.5;" x1="691" x2="836" y1="28.2969" y2="28.2969"/><text fill="#000000" font-family="sans-serif" font-size="14" font-weight="bold" lengthAdjust="spacing" textLength="132" x="695" y="20.9951">Excel Integration</text></g><!--MD5=[6f072518945319e51f58399d561b07c6]
entity Generate--><g id="elem_Generate"><rect fill="#90EE90" height="46.2969" rx="2.5" ry="2.5" style="stroke:#181818;stroke-width:0.5;" width="105" x="463.5" y="301"/><rect fill="#90EE90" height="10" style="stroke:#181818;stroke-width:0.5;" width="15" x="548.5" y="306"/><rect fill="#90EE90" height="2" style="stroke:#181818;stroke-width:0.5;" width="4" x="546.5" y="308"/><rect fill="#90EE90" height="2" style="stroke:#181818;stroke-width:0.5;" width="4" x="546.5" y="312"/><text fill="#000000" font-family="sans-serif" font-size="14" lengthAdjust="spacing" textLength="65" x="478.5" y="333.9951">Generate</text></g><!--MD5=[dd7b5a912d4be40ab4745e31caf32dda]
entity Translate--><g id="elem_Translate"><rect fill="#90EE90" height="46.2969" rx="2.5" ry="2.5" style="stroke:#181818;stroke-width:0.5;" width="104" x="180" y="301"/><rect fill="#90EE90" height="10" style="stroke:#181818;stroke-width:0.5;" width="15" x="264" y="306"/><rect fill="#90EE90" height="2" style="stroke:#181818;stroke-width:0.5;" width="4" x="262" y="308"/><rect fill="#90EE90" height="2" style="stroke:#181818;stroke-width:0.5;" width="4" x="262" y="312"/><text fill="#000000" font-family="sans-serif" font-size="14" lengthAdjust="spacing" textLength="64" x="195" y="333.9951">Translate</text></g><!--MD5=[786a576b4a5762f1e7d773a02060eba4]
entity Formulate--><g id="elem_Formulate"><rect fill="#90EE90" height="46.2969" rx="2.5" ry="2.5" style="stroke:#181818;stroke-width:0.5;" width="109" x="319.5" y="301"/><rect fill="#90EE90" height="10" style="stroke:#181818;stroke-width:0.5;" width="15" x="408.5" y="306"/><rect fill="#90EE90" height="2" style="stroke:#181818;stroke-width:0.5;" width="4" x="406.5" y="308"/><rect fill="#90EE90" height="2" style="stroke:#181818;stroke-width:0.5;" width="4" x="406.5" y="312"/><text fill="#000000" font-family="sans-serif" font-size="14" lengthAdjust="spacing" textLength="69" x="334.5" y="333.9951">Formulate</text></g><!--MD5=[1488900c34a19ae7431261af07bc5ac1]
entity Settings--><g id="elem_Settings"><rect fill="#90EE90" height="46.2969" rx="2.5" ry="2.5" style="stroke:#181818;stroke-width:0.5;" width="97" x="603.5" y="301"/><rect fill="#90EE90" height="10" style="stroke:#181818;stroke-width:0.5;" width="15" x="680.5" y="306"/><rect fill="#90EE90" height="2" style="stroke:#181818;stroke-width:0.5;" width="4" x="678.5" y="308"/><rect fill="#90EE90" height="2" style="stroke:#181818;stroke-width:0.5;" width="4" x="678.5" y="312"/><text fill="#000000" font-family="sans-serif" font-size="14" lengthAdjust="spacing" textLength="57" x="618.5" y="333.9951">Settings</text></g><!--MD5=[60055d2dcef9f041a7b8841675cdea1a]
entity Progress--><g id="elem_Progress"><rect fill="#90EE90" height="46.2969" rx="2.5" ry="2.5" style="stroke:#181818;stroke-width:0.5;" width="102" x="736" y="301"/><rect fill="#90EE90" height="10" style="stroke:#181818;stroke-width:0.5;" width="15" x="818" y="306"/><rect fill="#90EE90" height="2" style="stroke:#181818;stroke-width:0.5;" width="4" x="816" y="308"/><rect fill="#90EE90" height="2" style="stroke:#181818;stroke-width:0.5;" width="4" x="816" y="312"/><text fill="#000000" font-family="sans-serif" font-size="14" lengthAdjust="spacing" textLength="62" x="751" y="333.9951">Progress</text></g><!--MD5=[d03e9f1b23bf363bac3dfae22eb0f383]
entity Information--><g id="elem_Information"><rect fill="#90EE90" height="46.2969" rx="2.5" ry="2.5" style="stroke:#181818;stroke-width:0.5;" width="117" x="27.5" y="301"/><rect fill="#90EE90" height="10" style="stroke:#181818;stroke-width:0.5;" width="15" x="124.5" y="306"/><rect fill="#90EE90" height="2" style="stroke:#181818;stroke-width:0.5;" width="4" x="122.5" y="308"/><rect fill="#90EE90" height="2" style="stroke:#181818;stroke-width:0.5;" width="4" x="122.5" y="312"/><text fill="#000000" font-family="sans-serif" font-size="14" lengthAdjust="spacing" textLength="77" x="42.5" y="333.9951">Information</text></g><!--MD5=[3922b06f8f78db9a85dce03bafe44930]
entity ModuleGenerate--><g id="elem_ModuleGenerate"><rect fill="#ADD8E6" height="46.2969" rx="2.5" ry="2.5" style="stroke:#181818;stroke-width:0.5;" width="156" x="611" y="171"/><rect fill="#ADD8E6" height="10" style="stroke:#181818;stroke-width:0.5;" width="15" x="747" y="176"/><rect fill="#ADD8E6" height="2" style="stroke:#181818;stroke-width:0.5;" width="4" x="745" y="178"/><rect fill="#ADD8E6" height="2" style="stroke:#181818;stroke-width:0.5;" width="4" x="745" y="182"/><text fill="#000000" font-family="sans-serif" font-size="14" lengthAdjust="spacing" textLength="116" x="626" y="203.9951">ModuleGenerate</text></g><!--MD5=[12a879ce1df80ec1ebf8deb454412aab]
entity ModuleTranslate--><g id="elem_ModuleTranslate"><rect fill="#ADD8E6" height="46.2969" rx="2.5" ry="2.5" style="stroke:#181818;stroke-width:0.5;" width="155" x="225.5" y="171"/><rect fill="#ADD8E6" height="10" style="stroke:#181818;stroke-width:0.5;" width="15" x="360.5" y="176"/><rect fill="#ADD8E6" height="2" style="stroke:#181818;stroke-width:0.5;" width="4" x="358.5" y="178"/><rect fill="#ADD8E6" height="2" style="stroke:#181818;stroke-width:0.5;" width="4" x="358.5" y="182"/><text fill="#000000" font-family="sans-serif" font-size="14" lengthAdjust="spacing" textLength="115" x="240.5" y="203.9951">ModuleTranslate</text></g><!--MD5=[7a05a713079532e4589f767a05164089]
entity ModuleFormulate--><g id="elem_ModuleFormulate"><rect fill="#ADD8E6" height="46.2969" rx="2.5" ry="2.5" style="stroke:#181818;stroke-width:0.5;" width="160" x="416" y="171"/><rect fill="#ADD8E6" height="10" style="stroke:#181818;stroke-width:0.5;" width="15" x="556" y="176"/><rect fill="#ADD8E6" height="2" style="stroke:#181818;stroke-width:0.5;" width="4" x="554" y="178"/><rect fill="#ADD8E6" height="2" style="stroke:#181818;stroke-width:0.5;" width="4" x="554" y="182"/><text fill="#000000" font-family="sans-serif" font-size="14" lengthAdjust="spacing" textLength="120" x="431" y="203.9951">ModuleFormulate</text></g><!--MD5=[b07c80f34e1959b71e6dac0c93fa82e4]
entity ModuleSettings--><g id="elem_ModuleSettings"><rect fill="#ADD8E6" height="46.2969" rx="2.5" ry="2.5" style="stroke:#181818;stroke-width:0.5;" width="148" x="802" y="171"/><rect fill="#ADD8E6" height="10" style="stroke:#181818;stroke-width:0.5;" width="15" x="930" y="176"/><rect fill="#ADD8E6" height="2" style="stroke:#181818;stroke-width:0.5;" width="4" x="928" y="178"/><rect fill="#ADD8E6" height="2" style="stroke:#181818;stroke-width:0.5;" width="4" x="928" y="182"/><text fill="#000000" font-family="sans-serif" font-size="14" lengthAdjust="spacing" textLength="108" x="817" y="203.9951">ModuleSettings</text></g><!--MD5=[77a584db305a83a07916f12b922fb74e]
entity ModuleInformation--><g id="elem_ModuleInformation"><rect fill="#ADD8E6" height="46.2969" rx="2.5" ry="2.5" style="stroke:#181818;stroke-width:0.5;" width="168" x="22" y="171"/><rect fill="#ADD8E6" height="10" style="stroke:#181818;stroke-width:0.5;" width="15" x="170" y="176"/><rect fill="#ADD8E6" height="2" style="stroke:#181818;stroke-width:0.5;" width="4" x="168" y="178"/><rect fill="#ADD8E6" height="2" style="stroke:#181818;stroke-width:0.5;" width="4" x="168" y="182"/><text fill="#000000" font-family="sans-serif" font-size="14" lengthAdjust="spacing" textLength="128" x="37" y="203.9951">ModuleInformation</text></g><!--MD5=[a67f667e6166f989740ce3be44cfbd58]
entity ModuleModels--><g id="elem_ModuleModels"><rect fill="#ADD8E6" height="46.2969" rx="2.5" ry="2.5" style="stroke:#181818;stroke-width:0.5;" width="141" x="985.5" y="171"/><rect fill="#ADD8E6" height="10" style="stroke:#181818;stroke-width:0.5;" width="15" x="1106.5" y="176"/><rect fill="#ADD8E6" height="2" style="stroke:#181818;stroke-width:0.5;" width="4" x="1104.5" y="178"/><rect fill="#ADD8E6" height="2" style="stroke:#181818;stroke-width:0.5;" width="4" x="1104.5" y="182"/><text fill="#000000" font-family="sans-serif" font-size="14" lengthAdjust="spacing" textLength="101" x="1000.5" y="203.9951">ModuleModels</text></g><!--MD5=[dc275a7fdec22f14c8d6979a82687f2b]
entity BaseGenerator--><g id="elem_BaseGenerator"><rect fill="#ADD8E6" height="46.2969" rx="2.5" ry="2.5" style="stroke:#181818;stroke-width:0.5;" width="145" x="1103.5" y="444"/><rect fill="#ADD8E6" height="10" style="stroke:#181818;stroke-width:0.5;" width="15" x="1228.5" y="449"/><rect fill="#ADD8E6" height="2" style="stroke:#181818;stroke-width:0.5;" width="4" x="1226.5" y="451"/><rect fill="#ADD8E6" height="2" style="stroke:#181818;stroke-width:0.5;" width="4" x="1226.5" y="455"/><text fill="#000000" font-family="sans-serif" font-size="14" lengthAdjust="spacing" textLength="105" x="1118.5" y="476.9951">BaseGenerator</text></g><!--MD5=[1b0f88c30aa914bc3a0a42cd4e8a80fb]
entity CallableFunction--><g id="elem_CallableFunction"><rect fill="#ADD8E6" height="46.2969" rx="2.5" ry="2.5" style="stroke:#181818;stroke-width:0.5;" width="153" x="1103.5" y="301"/><rect fill="#ADD8E6" height="10" style="stroke:#181818;stroke-width:0.5;" width="15" x="1236.5" y="306"/><rect fill="#ADD8E6" height="2" style="stroke:#181818;stroke-width:0.5;" width="4" x="1234.5" y="308"/><rect fill="#ADD8E6" height="2" style="stroke:#181818;stroke-width:0.5;" width="4" x="1234.5" y="312"/><text fill="#000000" font-family="sans-serif" font-size="14" lengthAdjust="spacing" textLength="113" x="1118.5" y="333.9951">CallableFunction</text></g><!--MD5=[9b5b07befc4ce5bbd83386e611d45f03]
entity AutoUpdate--><g id="elem_AutoUpdate"><rect fill="#ADD8E6" height="46.2969" rx="2.5" ry="2.5" style="stroke:#181818;stroke-width:0.5;" width="122" x="1292" y="301"/><rect fill="#ADD8E6" height="10" style="stroke:#181818;stroke-width:0.5;" width="15" x="1394" y="306"/><rect fill="#ADD8E6" height="2" style="stroke:#181818;stroke-width:0.5;" width="4" x="1392" y="308"/><rect fill="#ADD8E6" height="2" style="stroke:#181818;stroke-width:0.5;" width="4" x="1392" y="312"/><text fill="#000000" font-family="sans-serif" font-size="14" lengthAdjust="spacing" textLength="82" x="1307" y="333.9951">AutoUpdate</text></g><!--MD5=[ee8438ce9128c7f4c358831556d380b9]
entity LibJSON--><g id="elem_LibJSON"><rect fill="#ADD8E6" height="46.2969" rx="2.5" ry="2.5" style="stroke:#181818;stroke-width:0.5;" width="92" x="1103" y="588"/><rect fill="#ADD8E6" height="10" style="stroke:#181818;stroke-width:0.5;" width="15" x="1175" y="593"/><rect fill="#ADD8E6" height="2" style="stroke:#181818;stroke-width:0.5;" width="4" x="1173" y="595"/><rect fill="#ADD8E6" height="2" style="stroke:#181818;stroke-width:0.5;" width="4" x="1173" y="599"/><text fill="#000000" font-family="sans-serif" font-size="14" lengthAdjust="spacing" textLength="52" x="1118" y="620.9951">LibJSON</text></g><!--MD5=[dee207126d0d71b7552768f2ddef7d5d]
entity ModuleConstant--><g id="elem_ModuleConstant"><rect fill="#ADD8E6" height="46.2969" rx="2.5" ry="2.5" style="stroke:#181818;stroke-width:0.5;" width="154" x="1615" y="718"/><rect fill="#ADD8E6" height="10" style="stroke:#181818;stroke-width:0.5;" width="15" x="1749" y="723"/><rect fill="#ADD8E6" height="2" style="stroke:#181818;stroke-width:0.5;" width="4" x="1747" y="725"/><rect fill="#ADD8E6" height="2" style="stroke:#181818;stroke-width:0.5;" width="4" x="1747" y="729"/><text fill="#000000" font-family="sans-serif" font-size="14" lengthAdjust="spacing" textLength="114" x="1630" y="750.9951">ModuleConstant</text></g><!--MD5=[4d0cd3fee318fc17203271c1e1e08663]
entity Dictionary--><g id="elem_Dictionary"><rect fill="#FFFFE0" height="46.2969" rx="2.5" ry="2.5" style="stroke:#181818;stroke-width:0.5;" width="108" x="251" y="718"/><rect fill="#FFFFE0" height="10" style="stroke:#181818;stroke-width:0.5;" width="15" x="339" y="723"/><rect fill="#FFFFE0" height="2" style="stroke:#181818;stroke-width:0.5;" width="4" x="337" y="725"/><rect fill="#FFFFE0" height="2" style="stroke:#181818;stroke-width:0.5;" width="4" x="337" y="729"/><text fill="#000000" font-family="sans-serif" font-size="14" lengthAdjust="spacing" textLength="68" x="266" y="750.9951">Dictionary</text></g><!--MD5=[4d69228a3a722564ba0d48eb399b4aba]
entity MouseScroll--><g id="elem_MouseScroll"><rect fill="#FFFFE0" height="46.2969" rx="2.5" ry="2.5" style="stroke:#181818;stroke-width:0.5;" width="124" x="328" y="588"/><rect fill="#FFFFE0" height="10" style="stroke:#181818;stroke-width:0.5;" width="15" x="432" y="593"/><rect fill="#FFFFE0" height="2" style="stroke:#181818;stroke-width:0.5;" width="4" x="430" y="595"/><rect fill="#FFFFE0" height="2" style="stroke:#181818;stroke-width:0.5;" width="4" x="430" y="599"/><text fill="#000000" font-family="sans-serif" font-size="14" lengthAdjust="spacing" textLength="84" x="343" y="620.9951">MouseScroll</text></g><!--MD5=[0c78c5cb47dd0f629f996847edd6cb8a]
entity LanguageRegistry--><g id="elem_LanguageRegistry"><rect fill="#FFFFE0" height="46.2969" rx="2.5" ry="2.5" style="stroke:#181818;stroke-width:0.5;" width="164" x="129" y="588"/><rect fill="#FFFFE0" height="10" style="stroke:#181818;stroke-width:0.5;" width="15" x="273" y="593"/><rect fill="#FFFFE0" height="2" style="stroke:#181818;stroke-width:0.5;" width="4" x="271" y="595"/><rect fill="#FFFFE0" height="2" style="stroke:#181818;stroke-width:0.5;" width="4" x="271" y="599"/><text fill="#000000" font-family="sans-serif" font-size="14" lengthAdjust="spacing" textLength="124" x="144" y="620.9951">LanguageRegistry</text></g><!--MD5=[aebc88ff3ab288db60ae844a88d966d3]
entity Ribbon UI--><g id="elem_Ribbon UI"><rect fill="#F1F1F1" height="46.2969" rx="2.5" ry="2.5" style="stroke:#181818;stroke-width:0.5;" width="106" x="707" y="41"/><rect fill="#F1F1F1" height="10" style="stroke:#181818;stroke-width:0.5;" width="15" x="793" y="46"/><rect fill="#F1F1F1" height="2" style="stroke:#181818;stroke-width:0.5;" width="4" x="791" y="48"/><rect fill="#F1F1F1" height="2" style="stroke:#181818;stroke-width:0.5;" width="4" x="791" y="52"/><text fill="#000000" font-family="sans-serif" font-size="14" lengthAdjust="spacing" textLength="66" x="722" y="73.9951">Ribbon UI</text></g><!--MD5=[a8c3fdaa7fda5bd342af42cf3f876674]
entity UDF Functions--><g id="elem_UDF Functions"><rect fill="#F1F1F1" height="46.2969" rx="2.5" ry="2.5" style="stroke:#181818;stroke-width:0.5;" width="141" x="848.5" y="41"/><rect fill="#F1F1F1" height="10" style="stroke:#181818;stroke-width:0.5;" width="15" x="969.5" y="46"/><rect fill="#F1F1F1" height="2" style="stroke:#181818;stroke-width:0.5;" width="4" x="967.5" y="48"/><rect fill="#F1F1F1" height="2" style="stroke:#181818;stroke-width:0.5;" width="4" x="967.5" y="52"/><text fill="#000000" font-family="sans-serif" font-size="14" lengthAdjust="spacing" textLength="101" x="863.5" y="73.9951">UDF Functions</text></g><!--MD5=[cd228f6f46a87528500eda6e5fdf1e68]
entity ThisWorkBook--><g id="elem_ThisWorkBook"><rect fill="#F1F1F1" height="46.2969" rx="2.5" ry="2.5" style="stroke:#181818;stroke-width:0.5;" width="140" x="1025" y="41"/><rect fill="#F1F1F1" height="10" style="stroke:#181818;stroke-width:0.5;" width="15" x="1145" y="46"/><rect fill="#F1F1F1" height="2" style="stroke:#181818;stroke-width:0.5;" width="4" x="1143" y="48"/><rect fill="#F1F1F1" height="2" style="stroke:#181818;stroke-width:0.5;" width="4" x="1143" y="52"/><text fill="#000000" font-family="sans-serif" font-size="14" lengthAdjust="spacing" textLength="100" x="1040" y="73.9951">ThisWorkBook</text></g><!--MD5=[76b135bba041b5b37fd772c22f51864b]
entity AI API--><g id="elem_AI API"><rect fill="#F1F1F1" height="46.2969" rx="2.5" ry="2.5" style="stroke:#181818;stroke-width:0.5;" width="77" x="1451.5" y="588"/><rect fill="#F1F1F1" height="10" style="stroke:#181818;stroke-width:0.5;" width="15" x="1508.5" y="593"/><rect fill="#F1F1F1" height="2" style="stroke:#181818;stroke-width:0.5;" width="4" x="1506.5" y="595"/><rect fill="#F1F1F1" height="2" style="stroke:#181818;stroke-width:0.5;" width="4" x="1506.5" y="599"/><text fill="#000000" font-family="sans-serif" font-size="14" lengthAdjust="spacing" textLength="37" x="1466.5" y="620.9951">AI API</text></g><g id="elem_GMN64328"><path d="M873.5,281 L873.5,366.6641 A0,0 0 0 0 873.5,366.6641 L1028.23,366.6641 L1143.89,443.91 L1036.23,366.6641 L1068.5,366.6641 A0,0 0 0 0 1068.5,366.6641 L1068.5,291 L1058.5,281 L873.5,281 A0,0 0 0 0 873.5,281 " fill="#FEFFDD" style="stroke:#181818;stroke-width:0.5;"/><path d="M1058.5,281 L1058.5,291 L1068.5,291 L1058.5,281 " fill="#FEFFDD" style="stroke:#181818;stroke-width:0.5;"/><text fill="#000000" font-family="sans-serif" font-size="13" lengthAdjust="spacing" textLength="129" x="879.5" y="298.0669">Central orchestrator</text><text fill="#000000" font-family="sans-serif" font-size="13" lengthAdjust="spacing" textLength="118" x="879.5" y="313.1997">- Validates API key</text><text fill="#000000" font-family="sans-serif" font-size="13" lengthAdjust="spacing" textLength="109" x="879.5" y="328.3325">- Checks security</text><text fill="#000000" font-family="sans-serif" font-size="13" lengthAdjust="spacing" textLength="143" x="879.5" y="343.4653">- Executes AI requests</text><text fill="#000000" font-family="sans-serif" font-size="13" lengthAdjust="spacing" textLength="174" x="879.5" y="358.5981">- Handles batch processing</text></g><g id="elem_GMN64331"><path d="M1403.5,705.5 L1403.5,776.0313 A0,0 0 0 0 1403.5,776.0313 L1576.5,776.0313 A0,0 0 0 0 1576.5,776.0313 L1576.5,715.5 L1566.5,705.5 L1494,705.5 L1490,634 L1486,705.5 L1403.5,705.5 A0,0 0 0 0 1403.5,705.5 " fill="#FEFFDD" style="stroke:#181818;stroke-width:0.5;"/><path d="M1566.5,705.5 L1566.5,715.5 L1576.5,715.5 L1566.5,705.5 " fill="#FEFFDD" style="stroke:#181818;stroke-width:0.5;"/><text fill="#000000" font-family="sans-serif" font-size="13" lengthAdjust="spacing" textLength="152" x="1409.5" y="722.5669">External OpenAI-like API</text><text fill="#000000" font-family="sans-serif" font-size="13" lengthAdjust="spacing" textLength="109" x="1409.5" y="737.6997">- Text generation</text><text fill="#000000" font-family="sans-serif" font-size="13" lengthAdjust="spacing" textLength="79" x="1409.5" y="752.8325">- Translation</text><text fill="#000000" font-family="sans-serif" font-size="13" lengthAdjust="spacing" textLength="117" x="1409.5" y="767.9653">- Formula creation</text></g><!--MD5=[95f1f9d7645b939cbe1ad13d9ba1a17a]
link Ribbon UI to ModuleGenerate--><g id="link_Ribbon UI_ModuleGenerate"><path d="M747.79,87 C735.6,108.98 716.85,142.8 703.81,166.3 " fill="none" id="Ribbon UI-to-ModuleGenerate" style="stroke:#181818;stroke-width:1.0;"/><polygon fill="#181818" points="701.28,170.85,709.1474,164.9252,703.7082,166.4792,702.1542,161.04,701.28,170.85" style="stroke:#181818;stroke-width:1.0;"/></g><!--MD5=[7acfd7a1407e0b8c008adc87634af8a0]
link Ribbon UI to ModuleTranslate--><g id="link_Ribbon UI_ModuleTranslate"><path d="M706.82,67.2 C634.48,71.75 502.15,85.65 398,128 C374.25,137.66 350.44,153.96 332.6,167.82 " fill="none" id="Ribbon UI-to-ModuleTranslate" style="stroke:#181818;stroke-width:1.0;"/><polygon fill="#181818" points="328.66,170.92,338.2085,168.5064,332.5921,167.8315,333.267,162.2151,328.66,170.92" style="stroke:#181818;stroke-width:1.0;"/></g><!--MD5=[c96af856df72ed796459a17d9ba86a70]
link Ribbon UI to ModuleFormulate--><g id="link_Ribbon UI_ModuleFormulate"><path d="M706.75,81.82 C673.53,93.13 630.34,109.35 594,128 C571.54,139.53 547.92,155.08 529.49,168.09 " fill="none" id="Ribbon UI-to-ModuleFormulate" style="stroke:#181818;stroke-width:1.0;"/><polygon fill="#181818" points="525.4,170.99,535.0512,169.0266,529.4725,168.0892,530.4099,162.5106,525.4,170.99" style="stroke:#181818;stroke-width:1.0;"/></g><!--MD5=[9fae92d50f73a2ad34c5af2f1a151e75]
link Ribbon UI to ModuleSettings--><g id="link_Ribbon UI_ModuleSettings"><path d="M779.94,87 C800.03,109.17 831.01,143.36 852.33,166.88 " fill="none" id="Ribbon UI-to-ModuleSettings" style="stroke:#181818;stroke-width:1.0;"/><polygon fill="#181818" points="855.93,170.85,852.8249,161.5034,852.5624,167.1542,846.9116,166.8916,855.93,170.85" style="stroke:#181818;stroke-width:1.0;"/></g><!--MD5=[a55e071c938bc0b1d20192c391a4a9cd]
link Ribbon UI to ModuleInformation--><g id="link_Ribbon UI_ModuleInformation"><path d="M706.72,68.02 C586.84,75.3 299.26,95.67 208,128 C182.42,137.06 156.68,153.54 137.45,167.63 " fill="none" id="Ribbon UI-to-ModuleInformation" style="stroke:#181818;stroke-width:1.0;"/><polygon fill="#181818" points="133.2,170.79,142.8087,168.6284,137.212,167.806,138.0343,162.2093,133.2,170.79" style="stroke:#181818;stroke-width:1.0;"/></g><!--MD5=[f70e92099ba1d7b37bc7f85d5d9e4d0f]
link Ribbon UI to ModuleModels--><g id="link_Ribbon UI_ModuleModels"><path d="M787.79,87.19 C800.3,96.03 815.68,105.42 831,111 C888.65,131.99 911.02,105.25 968,128 C990.6,137.02 1012.63,153.3 1028.99,167.31 " fill="none" id="Ribbon UI-to-ModuleModels" style="stroke:#181818;stroke-width:1.0;"/><polygon fill="#181818" points="1033.02,170.81,1028.8616,161.8821,1029.25,167.5256,1023.6065,167.914,1033.02,170.81" style="stroke:#181818;stroke-width:1.0;"/></g><!--MD5=[91a38e513ace7bd13959ca1801381f94]
link ModuleSettings to Settings--><g id="link_ModuleSettings_Settings"><path d="M832.46,219.41 C817.7,227.04 800.91,235.01 785,241 C756.65,251.67 745.42,243.18 719,258 C701.3,267.93 684.88,283.7 672.73,297.22 " fill="none" id="ModuleSettings-Settings" style="stroke:#181818;stroke-width:1.0;"/><polygon fill="#181818" points="669.42,300.96,678.3812,296.8738,672.7347,297.2167,672.3918,291.5702,669.42,300.96" style="stroke:#181818;stroke-width:1.0;"/><polygon fill="#181818" points="836.97,217.06,827.1409,217.6833,832.5386,219.3758,830.8461,224.7735,836.97,217.06" style="stroke:#181818;stroke-width:1.0;"/></g><!--MD5=[1cdac5ec5385527690a5782f73141c29]
link ModuleInformation to Information--><g id="link_ModuleInformation_Information"><path d="M102.56,217 C99.16,238.8 93.93,272.23 90.26,295.71 " fill="none" id="ModuleInformation-to-Information" style="stroke:#181818;stroke-width:1.0;"/><polygon fill="#181818" points="89.46,300.85,94.8,292.5745,90.231,295.9098,86.8957,291.3408,89.46,300.85" style="stroke:#181818;stroke-width:1.0;"/></g><!--MD5=[956f37db780498593f15aa3f8a9296de]
link ModuleGenerate to Generate--><g id="link_ModuleGenerate_Generate"><path d="M648.66,217.16 C629.13,228.5 605.71,243.06 586,258 C570.43,269.8 554.37,284.51 541.56,296.95 " fill="none" id="ModuleGenerate-to-Generate" style="stroke:#181818;stroke-width:1.0;"/><polygon fill="#181818" points="537.69,300.73,546.9176,297.2875,541.2611,297.2304,541.3182,291.5738,537.69,300.73" style="stroke:#181818;stroke-width:1.0;"/></g><!--MD5=[9b597752f573aca597b330b3f38be0c4]
link ModuleTranslate to Translate--><g id="link_ModuleTranslate_Translate"><path d="M290.79,217 C278.6,238.98 259.85,272.8 246.81,296.3 " fill="none" id="ModuleTranslate-to-Translate" style="stroke:#181818;stroke-width:1.0;"/><polygon fill="#181818" points="244.28,300.85,252.1474,294.9252,246.7082,296.4792,245.1542,291.04,244.28,300.85" style="stroke:#181818;stroke-width:1.0;"/></g><!--MD5=[adab0279099fb6b94765775d41f18a5f]
link ModuleFormulate to Formulate--><g id="link_ModuleFormulate_Formulate"><path d="M475.03,217 C453.82,239.26 421.04,273.64 398.61,297.17 " fill="none" id="ModuleFormulate-to-Formulate" style="stroke:#181818;stroke-width:1.0;"/><polygon fill="#181818" points="395.11,300.85,404.2138,297.0923,398.5586,297.2297,398.4213,291.5745,395.11,300.85" style="stroke:#181818;stroke-width:1.0;"/></g><!--MD5=[ed0cbaed0a8c4f62513f1a623da4a909]
link Generate to BaseGenerator--><g id="link_Generate_BaseGenerator"><path d="M543.78,347.17 C556.07,355.9 571.09,365.21 586,371 C760.62,438.83 982.43,458.24 1097.99,463.78 " fill="none" id="Generate-to-BaseGenerator" style="stroke:#181818;stroke-width:1.0;"/><polygon fill="#181818" points="1103.07,464.02,1094.2621,459.6132,1098.0752,463.7917,1093.8967,467.6048,1103.07,464.02" style="stroke:#181818;stroke-width:1.0;"/></g><!--MD5=[a0795d0a1273f2c4ad825367d00efc1b]
link Translate to BaseGenerator--><g id="link_Translate_BaseGenerator"><path d="M259.84,347.02 C272.13,355.73 287.15,365.06 302,371 C401.4,410.75 432.86,400.07 539,414 C739.55,440.31 977.47,455.52 1097.86,462.09 " fill="none" id="Translate-to-BaseGenerator" style="stroke:#181818;stroke-width:1.0;"/><polygon fill="#181818" points="1103.15,462.38,1094.3801,457.898,1098.1574,462.109,1093.9464,465.8863,1103.15,462.38" style="stroke:#181818;stroke-width:1.0;"/></g><!--MD5=[fdab1c073bfa78a2dfccbc69f32152fa]
link Formulate to BaseGenerator--><g id="link_Formulate_BaseGenerator"><path d="M403.14,347.06 C415.75,355.67 431.02,364.91 446,371 C563.12,418.62 935.24,449.38 1098.25,460.89 " fill="none" id="Formulate-to-BaseGenerator" style="stroke:#181818;stroke-width:1.0;"/><polygon fill="#181818" points="1103.48,461.26,1094.7888,456.6272,1098.4928,460.9027,1094.2172,464.6067,1103.48,461.26" style="stroke:#181818;stroke-width:1.0;"/></g><!--MD5=[141343637e9c7ac6079ff740637bdb2c]
link UDF Functions to CallableFunction--><g id="link_UDF Functions_CallableFunction"><path d="M954.57,87.04 C970.38,95.86 989.56,105.27 1008,111 C1036.88,119.97 1120.96,107.29 1143,128 C1189.21,171.42 1188.11,253.18 1183.83,295.72 " fill="none" id="UDF Functions-to-CallableFunction" style="stroke:#181818;stroke-width:1.0;"/><polygon fill="#181818" points="1183.3,300.71,1188.2291,292.1833,1183.8286,295.738,1180.274,291.3375,1183.3,300.71" style="stroke:#181818;stroke-width:1.0;"/></g><!--MD5=[dfdf90fff33219fe6162d60649e57619]
link CallableFunction to BaseGenerator--><g id="link_CallableFunction_BaseGenerator"><path d="M1179.38,347.03 C1178.67,371.72 1177.54,411.78 1176.78,438.5 " fill="none" id="CallableFunction-to-BaseGenerator" style="stroke:#181818;stroke-width:1.0;"/><polygon fill="#181818" points="1176.63,443.66,1180.8861,434.7783,1176.7732,438.6621,1172.8894,434.5491,1176.63,443.66" style="stroke:#181818;stroke-width:1.0;"/></g><!--MD5=[81edb5246654f8c642867a25006f2841]
link BaseGenerator to ModuleConstant--><g id="link_BaseGenerator_ModuleConstant"><path d="M1189.09,490.26 C1217.65,537.93 1286.01,647.2 1324,667 C1350.61,680.87 1565.4,665.91 1594,675 C1619.51,683.1 1644.59,699.95 1662.99,714.46 " fill="none" id="BaseGenerator-to-ModuleConstant" style="stroke:#181818;stroke-width:1.0;"/><polygon fill="#181818" points="1667.05,717.71,1662.5327,708.9582,1663.1498,714.5813,1657.5268,715.1985,1667.05,717.71" style="stroke:#181818;stroke-width:1.0;"/></g><!--MD5=[3fe91b887353726b557cadc3f80d4c65]
link BaseGenerator to LibJSON--><g id="link_BaseGenerator_LibJSON"><path d="M1166.46,490.14 C1162.93,499.23 1159.24,509.96 1157,520 C1152.39,540.67 1150.42,564.58 1149.58,582.55 " fill="none" id="BaseGenerator-to-LibJSON" style="stroke:#181818;stroke-width:1.0;"/><polygon fill="#181818" points="1149.36,587.93,1153.7428,579.1101,1149.5747,582.9346,1145.7502,578.7665,1149.36,587.93" style="stroke:#181818;stroke-width:1.0;"/></g><!--MD5=[5990084053f9ca3d5740edec3b887855]
link BaseGenerator to Progress--><g id="link_BaseGenerator_Progress"><path d="M1103.21,450.96 C1036.84,435.73 937.07,409 856,371 C843.8,365.28 831.3,357.6 820.35,350.15 " fill="none" id="BaseGenerator-to-Progress" style="stroke:#181818;stroke-width:1.0;"/><polygon fill="#181818" points="816.07,347.2,821.2203,355.5949,820.1902,350.0326,825.7525,349.0026,816.07,347.2" style="stroke:#181818;stroke-width:1.0;"/></g><!--MD5=[01cb09a604a1f7f25f3db773dd2626b3]
link LibJSON to Dictionary--><g id="link_LibJSON_Dictionary"><path d="M1102.72,619.02 C959.55,640.73 523.91,706.8 364.36,731 " fill="none" id="LibJSON-to-Dictionary" style="stroke:#181818;stroke-width:1.0;"/><polygon fill="#181818" points="359.26,731.77,368.7619,734.3612,364.2024,731.0129,367.5506,726.4534,359.26,731.77" style="stroke:#181818;stroke-width:1.0;"/></g><!--MD5=[2657dbadb89055a2b9e780e8f26a002c]
link BaseGenerator to AI API--><g id="link_BaseGenerator_AI API"><path d="M1200.05,490.11 C1219.3,506.32 1247.83,527.14 1277,537 C1309.26,547.9 1399.18,530.53 1430,545 C1447.64,553.28 1462.53,569.32 1473.07,583.39 " fill="none" id="BaseGenerator-to-AI API" style="stroke:#181818;stroke-width:1.0;stroke-dasharray:7.0,7.0;"/><polygon fill="#181818" points="1476.2,587.68,1474.1374,578.0496,1473.2574,583.6376,1467.6694,582.7576,1476.2,587.68" style="stroke:#181818;stroke-width:1.0;"/><text fill="#000000" font-family="sans-serif" font-size="13" lengthAdjust="spacing" textLength="88" x="1278" y="533.0669">HTTP Request</text></g><!--MD5=[ada335eaf6a5256d800afa2dba8146ba]
link ModuleSettings to AI API--><g id="link_ModuleSettings_AI API"><path d="M911.31,217.11 C927.88,226.29 948.28,235.96 968,241 C1017.77,253.72 1391.36,224.15 1430,258 C1478.61,300.58 1487.84,507.29 1489.59,582.54 " fill="none" id="ModuleSettings-to-AI API" style="stroke:#181818;stroke-width:1.0;stroke-dasharray:7.0,7.0;"/><polygon fill="#181818" points="1489.7,587.72,1493.4933,578.6309,1489.5857,582.7213,1485.4954,578.8138,1489.7,587.72" style="stroke:#181818;stroke-width:1.0;"/><text fill="#000000" font-family="sans-serif" font-size="13" lengthAdjust="spacing" textLength="88" x="1478" y="410.0669">HTTP Request</text></g><!--MD5=[24f574ac8a0f187a7811037775cba788]
link ModuleModels to AI API--><g id="link_ModuleModels_AI API"><path d="M1126.86,195.12 C1238.41,196.68 1448.33,205.49 1507,249 C1611.67,326.62 1616.3,418.54 1562,537 C1553.59,555.34 1538.52,571.75 1524.32,584.34 " fill="none" id="ModuleModels-to-AI API" style="stroke:#181818;stroke-width:1.0;stroke-dasharray:7.0,7.0;"/><polygon fill="#181818" points="1520.35,587.79,1529.775,584.9319,1524.1332,584.5208,1524.5443,578.8789,1520.35,587.79" style="stroke:#181818;stroke-width:1.0;"/><text fill="#000000" font-family="sans-serif" font-size="13" lengthAdjust="spacing" textLength="88" x="1597" y="410.0669">HTTP Request</text></g><!--MD5=[1912f50ee3acd9ca043b8af7fed45fcf]
link AutoUpdate to AI API--><g id="link_AutoUpdate_AI API"><path d="M1360.81,347.05 C1372.43,379.11 1395.52,440.2 1420,490 C1436.33,523.21 1458.23,559.73 1473.16,583.65 " fill="none" id="AutoUpdate-to-AI API" style="stroke:#181818;stroke-width:1.0;stroke-dasharray:7.0,7.0;"/><polygon fill="#181818" points="1475.86,587.96,1474.4584,578.2114,1473.1997,583.7264,1467.6847,582.4678,1475.86,587.96" style="stroke:#181818;stroke-width:1.0;"/><text fill="#000000" font-family="sans-serif" font-size="13" lengthAdjust="spacing" textLength="88" x="1421" y="471.5669">HTTP Request</text></g><!--MD5=[afec87164199da067588aada34de970d]
link ModuleSettings to ModuleConstant--><g id="link_ModuleSettings_ModuleConstant"><path d="M910.83,217.04 C927.46,226.33 948.05,236.11 968,241 C1018.19,253.3 1381.65,243.24 1433,249 C1452.4,251.18 1457.92,250.63 1476,258 C1582.41,301.36 1638.75,296.25 1694,397 C1751.23,501.37 1717.87,651.86 1700.5,712.82 " fill="none" id="ModuleSettings-to-ModuleConstant" style="stroke:#181818;stroke-width:1.0;"/><polygon fill="#181818" points="1699.07,717.75,1705.4093,710.2126,1700.4568,712.9462,1697.7232,707.9937,1699.07,717.75" style="stroke:#181818;stroke-width:1.0;"/></g><!--MD5=[c14b8befaff85f56c545bcfb64451219]
link ModuleModels to ModuleConstant--><g id="link_ModuleModels_ModuleConstant"><path d="M1126.67,194.84 C1275.21,195.61 1614.32,203.48 1714,258 C1746.22,275.62 1765,286.28 1765,323 C1765,323 1765,323 1765,612 C1765,651.34 1738.66,689.6 1717.62,713.89 " fill="none" id="ModuleModels-to-ModuleConstant" style="stroke:#181818;stroke-width:1.0;"/><polygon fill="#181818" points="1714.3,717.66,1723.2534,713.5568,1717.6076,713.9104,1717.2541,708.2646,1714.3,717.66" style="stroke:#181818;stroke-width:1.0;"/></g><!--MD5=[8fa9cf5eddc3cc74a636f1e881af25a4]
link AutoUpdate to ModuleConstant--><g id="link_AutoUpdate_ModuleConstant"><path d="M1350.6,347.19 C1345.42,407.81 1340.39,577.05 1434,658 C1461.04,681.39 1560.36,662.88 1594,675 C1618.82,683.94 1643.56,700.42 1661.97,714.55 " fill="none" id="AutoUpdate-to-ModuleConstant" style="stroke:#181818;stroke-width:1.0;"/><polygon fill="#181818" points="1666.03,717.71,1661.3881,709.0236,1662.0855,714.6373,1656.4719,715.3348,1666.03,717.71" style="stroke:#181818;stroke-width:1.0;"/></g><!--MD5=[0e35a4e21610e96f0f8cf3bc8c3451c3]
link Generate to MouseScroll--><g id="link_Generate_MouseScroll"><path d="M506.11,347.36 C483.25,399.08 426.79,526.79 402,582.86 " fill="none" id="Generate-to-MouseScroll" style="stroke:#181818;stroke-width:1.0;"/><polygon fill="#181818" points="399.84,587.74,407.1467,581.136,401.868,583.1698,399.8343,577.8911,399.84,587.74" style="stroke:#181818;stroke-width:1.0;"/></g><!--MD5=[662c8ab63d738a0ae3b76b8d6733e5ae]
link Translate to MouseScroll--><g id="link_Translate_MouseScroll"><path d="M244.4,347.36 C273.13,399.18 344.16,527.31 375.14,583.2 " fill="none" id="Translate-to-MouseScroll" style="stroke:#181818;stroke-width:1.0;"/><polygon fill="#181818" points="377.66,587.74,376.7994,577.9288,375.2378,583.3659,369.8008,581.8043,377.66,587.74" style="stroke:#181818;stroke-width:1.0;"/></g><!--MD5=[84e20ce14b0b64ca7391deb1ba51c54a]
link Formulate to MouseScroll--><g id="link_Formulate_MouseScroll"><path d="M375.26,347.36 C378.15,398.98 385.3,526.28 388.46,582.52 " fill="none" id="Formulate-to-MouseScroll" style="stroke:#181818;stroke-width:1.0;"/><polygon fill="#181818" points="388.75,587.74,392.23,578.5265,388.4648,582.7481,384.2431,578.9829,388.75,587.74" style="stroke:#181818;stroke-width:1.0;"/></g><!--MD5=[6d3ceda099e8163c5c9d17ff794b33f8]
link Information to MouseScroll--><g id="link_Information_MouseScroll"><path d="M109.6,347.13 C165.02,399.08 303.26,528.68 362.42,584.15 " fill="none" id="Information-to-MouseScroll" style="stroke:#181818;stroke-width:1.0;"/><polygon fill="#181818" points="366.2,587.69,362.351,578.6244,362.5452,584.2779,356.8917,584.4721,366.2,587.69" style="stroke:#181818;stroke-width:1.0;"/></g><!--MD5=[735dada86678c85dc306dd2cf84c666e]
link LanguageRegistry to Dictionary--><g id="link_LanguageRegistry_Dictionary"><path d="M227.16,634 C243.37,656.08 268.34,690.08 285.61,713.59 " fill="none" id="LanguageRegistry-to-Dictionary" style="stroke:#181818;stroke-width:1.0;"/><polygon fill="#181818" points="288.74,717.85,286.6389,708.2279,285.7813,713.8193,280.1899,712.9618,288.74,717.85" style="stroke:#181818;stroke-width:1.0;"/></g><!--MD5=[71c1614ba0a6d0b568c32cf8836ba9fd]
link Translate to LanguageRegistry--><g id="link_Translate_LanguageRegistry"><path d="M230.35,347.36 C226.55,398.98 217.17,526.28 213.02,582.52 " fill="none" id="Translate-to-LanguageRegistry" style="stroke:#181818;stroke-width:1.0;"/><polygon fill="#181818" points="212.64,587.74,217.2728,579.0488,212.9973,582.7528,209.2933,578.4772,212.64,587.74" style="stroke:#181818;stroke-width:1.0;"/></g><!--MD5=[1e63662192cfe4f54dcf7c08ef621acb]
link ThisWorkBook to AutoUpdate--><g id="link_ThisWorkBook_AutoUpdate"><path d="M1153.86,87.06 C1171.73,95.42 1190.67,106.1 1206,119 C1267.71,170.94 1316.92,254.17 1339.52,296.47 " fill="none" id="ThisWorkBook-to-AutoUpdate" style="stroke:#181818;stroke-width:1.0;"/><polygon fill="#181818" points="1341.89,300.93,1341.2039,291.1051,1339.546,296.5135,1334.1375,294.8555,1341.89,300.93" style="stroke:#181818;stroke-width:1.0;"/></g><!--MD5=[d15bcf466e7c0b42d0e3849fec410d28]
@startuml
skinparam backgroundColor transparent
!define MODULE #LightBlue
!define FORM #LightGreen
!define LIBRARY #LightYellow
!define PACKAGE #White

package "User Interface" PACKAGE {
    [Generate] FORM
    [Translate] FORM
    [Formulate] FORM
    [Settings] FORM
    [Progress] FORM
    [Information] FORM
}

package "Module Interface" PACKAGE {
    [ModuleGenerate] MODULE
    [ModuleTranslate] MODULE
    [ModuleFormulate] MODULE
    [ModuleSettings] MODULE
    [ModuleInformation] MODULE
    [ModuleModels] MODULE
}

package "Core Logic" PACKAGE {
    [BaseGenerator] MODULE
    [CallableFunction] MODULE
    [AutoUpdate] MODULE
    [LibJSON] MODULE
}

package "Configuration" PACKAGE {
    [ModuleConstant] MODULE
}

package "Libraries" PACKAGE {
    [Dictionary] LIBRARY
    [MouseScroll] LIBRARY
    [LanguageRegistry] LIBRARY
}

package "Excel Integration" PACKAGE {
    [Ribbon UI] 
    [UDF Functions]
    [ThisWorkBook]
}

' User interactions
[Ribbon UI] - -> [ModuleGenerate]
[Ribbon UI] - -> [ModuleTranslate]
[Ribbon UI] - -> [ModuleFormulate]
[Ribbon UI] - -> [ModuleSettings]
[Ribbon UI] - -> [ModuleInformation]
[Ribbon UI] - -> [ModuleModels]

' Modules to Forms
[ModuleSettings] <-> [Settings]
[ModuleInformation] - -> [Information]
[ModuleGenerate] - -> [Generate] 
[ModuleTranslate] - -> [Translate] 
[ModuleFormulate] - -> [Formulate]

' Forms to Core
[Generate] - -> [BaseGenerator]
[Translate] - -> [BaseGenerator]
[Formulate] - -> [BaseGenerator]

' UDF to Core
[UDF Functions] - -> [CallableFunction]
[CallableFunction] - -> [BaseGenerator]

' Core dependencies
[BaseGenerator] - - -> [ModuleConstant]
[BaseGenerator] - -> [LibJSON]
[BaseGenerator] - -> [Progress]
[LibJSON] - -> [Dictionary]

' HTTP request
[BaseGenerator] ..> [AI API] : HTTP Request
[ModuleSettings] ..> [AI API] : HTTP Request
[ModuleModels] ..> [AI API] : HTTP Request
[AutoUpdate] ..> [AI API] : HTTP Request

[ModuleSettings] - - -> [ModuleConstant]
[ModuleModels] - - -> [ModuleConstant]
[AutoUpdate] - - -> [ModuleConstant]

' Library usage
[Generate] - -> [MouseScroll]
[Translate] - -> [MouseScroll]
[Formulate] - -> [MouseScroll]
[Information] - -> [MouseScroll]
[LanguageRegistry] - -> [Dictionary]
[Translate] - -> [LanguageRegistry]

' Auto update
[ThisWorkBook] - -> [AutoUpdate]

note top of [BaseGenerator]
  Central orchestrator
  - Validates API key
  - Checks security
  - Executes AI requests
  - Handles batch processing
end note

note bottom of [AI API]
  External OpenAI-like API
  - Text generation
  - Translation
  - Formula creation
end note
@enduml

@startuml
skinparam backgroundColor transparent

package "User Interface" #White {
    [Generate] #LightGreen
    [Translate] #LightGreen
    [Formulate] #LightGreen
    [Settings] #LightGreen
    [Progress] #LightGreen
    [Information] #LightGreen
}

package "Module Interface" #White {
    [ModuleGenerate] #LightBlue
    [ModuleTranslate] #LightBlue
    [ModuleFormulate] #LightBlue
    [ModuleSettings] #LightBlue
    [ModuleInformation] #LightBlue
    [ModuleModels] #LightBlue
}

package "Core Logic" #White {
    [BaseGenerator] #LightBlue
    [CallableFunction] #LightBlue
    [AutoUpdate] #LightBlue
    [LibJSON] #LightBlue
}

package "Configuration" #White {
    [ModuleConstant] #LightBlue
}

package "Libraries" #White {
    [Dictionary] #LightYellow
    [MouseScroll] #LightYellow
    [LanguageRegistry] #LightYellow
}

package "Excel Integration" #White {
    [Ribbon UI] 
    [UDF Functions]
    [ThisWorkBook]
}

[Ribbon UI] - -> [ModuleGenerate]
[Ribbon UI] - -> [ModuleTranslate]
[Ribbon UI] - -> [ModuleFormulate]
[Ribbon UI] - -> [ModuleSettings]
[Ribbon UI] - -> [ModuleInformation]
[Ribbon UI] - -> [ModuleModels]

[ModuleSettings] <-> [Settings]
[ModuleInformation] - -> [Information]
[ModuleGenerate] - -> [Generate] 
[ModuleTranslate] - -> [Translate] 
[ModuleFormulate] - -> [Formulate]

[Generate] - -> [BaseGenerator]
[Translate] - -> [BaseGenerator]
[Formulate] - -> [BaseGenerator]

[UDF Functions] - -> [CallableFunction]
[CallableFunction] - -> [BaseGenerator]

[BaseGenerator] - - -> [ModuleConstant]
[BaseGenerator] - -> [LibJSON]
[BaseGenerator] - -> [Progress]
[LibJSON] - -> [Dictionary]

[BaseGenerator] ..> [AI API] : HTTP Request
[ModuleSettings] ..> [AI API] : HTTP Request
[ModuleModels] ..> [AI API] : HTTP Request
[AutoUpdate] ..> [AI API] : HTTP Request

[ModuleSettings] - - -> [ModuleConstant]
[ModuleModels] - - -> [ModuleConstant]
[AutoUpdate] - - -> [ModuleConstant]

[Generate] - -> [MouseScroll]
[Translate] - -> [MouseScroll]
[Formulate] - -> [MouseScroll]
[Information] - -> [MouseScroll]
[LanguageRegistry] - -> [Dictionary]
[Translate] - -> [LanguageRegistry]

[ThisWorkBook] - -> [AutoUpdate]

note top of [BaseGenerator]
  Central orchestrator
  - Validates API key
  - Checks security
  - Executes AI requests
  - Handles batch processing
end note

note bottom of [AI API]
  External OpenAI-like API
  - Text generation
  - Translation
  - Formula creation
end note
@enduml

PlantUML version 1.2022.7(Mon Aug 22 17:01:30 UTC 2022)
(GPL source distribution)
Java Runtime: OpenJDK Runtime Environment
JVM: OpenJDK 64-Bit Server VM
Default Encoding: UTF-8
Language: en
Country: null
--></g></svg>