<svg xmlns="http://www.w3.org/2000/svg" width="1792" height="787" preserveAspectRatio="none" style="width:1792px;height:787px;background:#fff"><path fill="#FFF" stroke="#000" stroke-width="1.5" d="M13.5 266h114a3.75 3.75 0 0 1 2.5 2.5l7 19.7969h714.5a2.5 2.5 0 0 1 2.5 2.5V360.5a2.5 2.5 0 0 1-2.5 2.5h-838a2.5 2.5 0 0 1-2.5-2.5v-92a2.5 2.5 0 0 1 2.5-2.5"/><path stroke="#000" stroke-width="1.5" d="M11 288.2969h126"/><text x="15" y="280.9951" font-family="sans-serif" font-size="14" font-weight="bold" textLength="113">User Interface</text><path fill="#FFF" stroke="#000" stroke-width="1.5" d="M8.5 136h134a3.75 3.75 0 0 1 2.5 2.5l7 19.7969h988.5a2.5 2.5 0 0 1 2.5 2.5V230.5a2.5 2.5 0 0 1-2.5 2.5H8.5a2.5 2.5 0 0 1-2.5-2.5v-92a2.5 2.5 0 0 1 2.5-2.5"/><path stroke="#000" stroke-width="1.5" d="M6 158.2969h146"/><text x="10" y="150.9951" font-family="sans-serif" font-size="14" font-weight="bold" textLength="133">Module Interface</text><path fill="#FFF" stroke="#000" stroke-width="1.5" d="M1089.5 266h86a3.75 3.75 0 0 1 2.5 2.5l7 19.7969h242.5a2.5 2.5 0 0 1 2.5 2.5V647.5a2.5 2.5 0 0 1-2.5 2.5h-338a2.5 2.5 0 0 1-2.5-2.5v-379a2.5 2.5 0 0 1 2.5-2.5"/><path stroke="#000" stroke-width="1.5" d="M1087 288.2969h98"/><text x="1091" y="280.9951" font-family="sans-serif" font-size="14" font-weight="bold" textLength="85">Core Logic</text><path fill="#FFF" stroke="#000" stroke-width="1.5" d="M1601.5 683h108a3.75 3.75 0 0 1 2.5 2.5l7 19.7969h63.5a2.5 2.5 0 0 1 2.5 2.5V777.5a2.5 2.5 0 0 1-2.5 2.5h-181a2.5 2.5 0 0 1-2.5-2.5v-92a2.5 2.5 0 0 1 2.5-2.5"/><path stroke="#000" stroke-width="1.5" d="M1599 705.2969h120"/><text x="1603" y="697.9951" font-family="sans-serif" font-size="14" font-weight="bold" textLength="107">Configuration</text><path fill="#FFF" stroke="#000" stroke-width="1.5" d="M115.5 553h70a3.75 3.75 0 0 1 2.5 2.5l7 19.7969h270.5a2.5 2.5 0 0 1 2.5 2.5V777.5a2.5 2.5 0 0 1-2.5 2.5h-350a2.5 2.5 0 0 1-2.5-2.5v-222a2.5 2.5 0 0 1 2.5-2.5"/><path stroke="#000" stroke-width="1.5" d="M113 575.2969h82"/><text x="117" y="567.9951" font-family="sans-serif" font-size="14" font-weight="bold" textLength="69">Libraries</text><path fill="#FFF" stroke="#000" stroke-width="1.5" d="M693.5 6h133a3.75 3.75 0 0 1 2.5 2.5l7 19.7969h342.5a2.5 2.5 0 0 1 2.5 2.5V100.5a2.5 2.5 0 0 1-2.5 2.5h-485a2.5 2.5 0 0 1-2.5-2.5v-92a2.5 2.5 0 0 1 2.5-2.5"/><path stroke="#000" stroke-width="1.5" d="M691 28.2969h145"/><text x="695" y="20.9951" font-family="sans-serif" font-size="14" font-weight="bold" textLength="132">Excel Integration</text><rect width="105" height="46.2969" x="463.5" y="301" fill="#90EE90" stroke="#181818" stroke-width=".5" rx="2.5" ry="2.5"/><path fill="#90EE90" stroke="#181818" stroke-width=".5" d="M548.5 306h15v10h-15z"/><path fill="#90EE90" stroke="#181818" stroke-width=".5" d="M546.5 308h4v2h-4zm0 4h4v2h-4z"/><text x="478.5" y="333.9951" font-family="sans-serif" font-size="14" textLength="65">Generate</text><rect width="104" height="46.2969" x="180" y="301" fill="#90EE90" stroke="#181818" stroke-width=".5" rx="2.5" ry="2.5"/><path fill="#90EE90" stroke="#181818" stroke-width=".5" d="M264 306h15v10h-15z"/><path fill="#90EE90" stroke="#181818" stroke-width=".5" d="M262 308h4v2h-4zm0 4h4v2h-4z"/><text x="195" y="333.9951" font-family="sans-serif" font-size="14" textLength="64">Translate</text><rect width="109" height="46.2969" x="319.5" y="301" fill="#90EE90" stroke="#181818" stroke-width=".5" rx="2.5" ry="2.5"/><path fill="#90EE90" stroke="#181818" stroke-width=".5" d="M408.5 306h15v10h-15z"/><path fill="#90EE90" stroke="#181818" stroke-width=".5" d="M406.5 308h4v2h-4zm0 4h4v2h-4z"/><text x="334.5" y="333.9951" font-family="sans-serif" font-size="14" textLength="69">Formulate</text><rect width="97" height="46.2969" x="603.5" y="301" fill="#90EE90" stroke="#181818" stroke-width=".5" rx="2.5" ry="2.5"/><path fill="#90EE90" stroke="#181818" stroke-width=".5" d="M680.5 306h15v10h-15z"/><path fill="#90EE90" stroke="#181818" stroke-width=".5" d="M678.5 308h4v2h-4zm0 4h4v2h-4z"/><text x="618.5" y="333.9951" font-family="sans-serif" font-size="14" textLength="57">Settings</text><rect width="102" height="46.2969" x="736" y="301" fill="#90EE90" stroke="#181818" stroke-width=".5" rx="2.5" ry="2.5"/><path fill="#90EE90" stroke="#181818" stroke-width=".5" d="M818 306h15v10h-15z"/><path fill="#90EE90" stroke="#181818" stroke-width=".5" d="M816 308h4v2h-4zm0 4h4v2h-4z"/><text x="751" y="333.9951" font-family="sans-serif" font-size="14" textLength="62">Progress</text><rect width="117" height="46.2969" x="27.5" y="301" fill="#90EE90" stroke="#181818" stroke-width=".5" rx="2.5" ry="2.5"/><path fill="#90EE90" stroke="#181818" stroke-width=".5" d="M124.5 306h15v10h-15z"/><path fill="#90EE90" stroke="#181818" stroke-width=".5" d="M122.5 308h4v2h-4zm0 4h4v2h-4z"/><text x="42.5" y="333.9951" font-family="sans-serif" font-size="14" textLength="77">Information</text><rect width="156" height="46.2969" x="611" y="171" fill="#ADD8E6" stroke="#181818" stroke-width=".5" rx="2.5" ry="2.5"/><path fill="#ADD8E6" stroke="#181818" stroke-width=".5" d="M747 176h15v10h-15z"/><path fill="#ADD8E6" stroke="#181818" stroke-width=".5" d="M745 178h4v2h-4zm0 4h4v2h-4z"/><text x="626" y="203.9951" font-family="sans-serif" font-size="14" textLength="116">ModuleGenerate</text><rect width="155" height="46.2969" x="225.5" y="171" fill="#ADD8E6" stroke="#181818" stroke-width=".5" rx="2.5" ry="2.5"/><path fill="#ADD8E6" stroke="#181818" stroke-width=".5" d="M360.5 176h15v10h-15z"/><path fill="#ADD8E6" stroke="#181818" stroke-width=".5" d="M358.5 178h4v2h-4zm0 4h4v2h-4z"/><text x="240.5" y="203.9951" font-family="sans-serif" font-size="14" textLength="115">ModuleTranslate</text><rect width="160" height="46.2969" x="416" y="171" fill="#ADD8E6" stroke="#181818" stroke-width=".5" rx="2.5" ry="2.5"/><path fill="#ADD8E6" stroke="#181818" stroke-width=".5" d="M556 176h15v10h-15z"/><path fill="#ADD8E6" stroke="#181818" stroke-width=".5" d="M554 178h4v2h-4zm0 4h4v2h-4z"/><text x="431" y="203.9951" font-family="sans-serif" font-size="14" textLength="120">ModuleFormulate</text><rect width="148" height="46.2969" x="802" y="171" fill="#ADD8E6" stroke="#181818" stroke-width=".5" rx="2.5" ry="2.5"/><path fill="#ADD8E6" stroke="#181818" stroke-width=".5" d="M930 176h15v10h-15z"/><path fill="#ADD8E6" stroke="#181818" stroke-width=".5" d="M928 178h4v2h-4zm0 4h4v2h-4z"/><text x="817" y="203.9951" font-family="sans-serif" font-size="14" textLength="108">ModuleSettings</text><rect width="168" height="46.2969" x="22" y="171" fill="#ADD8E6" stroke="#181818" stroke-width=".5" rx="2.5" ry="2.5"/><path fill="#ADD8E6" stroke="#181818" stroke-width=".5" d="M170 176h15v10h-15z"/><path fill="#ADD8E6" stroke="#181818" stroke-width=".5" d="M168 178h4v2h-4zm0 4h4v2h-4z"/><text x="37" y="203.9951" font-family="sans-serif" font-size="14" textLength="128">ModuleInformation</text><rect width="141" height="46.2969" x="985.5" y="171" fill="#ADD8E6" stroke="#181818" stroke-width=".5" rx="2.5" ry="2.5"/><path fill="#ADD8E6" stroke="#181818" stroke-width=".5" d="M1106.5 176h15v10h-15z"/><path fill="#ADD8E6" stroke="#181818" stroke-width=".5" d="M1104.5 178h4v2h-4zm0 4h4v2h-4z"/><text x="1000.5" y="203.9951" font-family="sans-serif" font-size="14" textLength="101">ModuleModels</text><rect width="145" height="46.2969" x="1103.5" y="444" fill="#ADD8E6" stroke="#181818" stroke-width=".5" rx="2.5" ry="2.5"/><path fill="#ADD8E6" stroke="#181818" stroke-width=".5" d="M1228.5 449h15v10h-15z"/><path fill="#ADD8E6" stroke="#181818" stroke-width=".5" d="M1226.5 451h4v2h-4zm0 4h4v2h-4z"/><text x="1118.5" y="476.9951" font-family="sans-serif" font-size="14" textLength="105">BaseGenerator</text><rect width="153" height="46.2969" x="1103.5" y="301" fill="#ADD8E6" stroke="#181818" stroke-width=".5" rx="2.5" ry="2.5"/><path fill="#ADD8E6" stroke="#181818" stroke-width=".5" d="M1236.5 306h15v10h-15z"/><path fill="#ADD8E6" stroke="#181818" stroke-width=".5" d="M1234.5 308h4v2h-4zm0 4h4v2h-4z"/><text x="1118.5" y="333.9951" font-family="sans-serif" font-size="14" textLength="113">CallableFunction</text><rect width="122" height="46.2969" x="1292" y="301" fill="#ADD8E6" stroke="#181818" stroke-width=".5" rx="2.5" ry="2.5"/><path fill="#ADD8E6" stroke="#181818" stroke-width=".5" d="M1394 306h15v10h-15z"/><path fill="#ADD8E6" stroke="#181818" stroke-width=".5" d="M1392 308h4v2h-4zm0 4h4v2h-4z"/><text x="1307" y="333.9951" font-family="sans-serif" font-size="14" textLength="82">AutoUpdate</text><rect width="92" height="46.2969" x="1103" y="588" fill="#ADD8E6" stroke="#181818" stroke-width=".5" rx="2.5" ry="2.5"/><path fill="#ADD8E6" stroke="#181818" stroke-width=".5" d="M1175 593h15v10h-15z"/><path fill="#ADD8E6" stroke="#181818" stroke-width=".5" d="M1173 595h4v2h-4zm0 4h4v2h-4z"/><text x="1118" y="620.9951" font-family="sans-serif" font-size="14" textLength="52">LibJSON</text><rect width="154" height="46.2969" x="1615" y="718" fill="#ADD8E6" stroke="#181818" stroke-width=".5" rx="2.5" ry="2.5"/><path fill="#ADD8E6" stroke="#181818" stroke-width=".5" d="M1749 723h15v10h-15z"/><path fill="#ADD8E6" stroke="#181818" stroke-width=".5" d="M1747 725h4v2h-4zm0 4h4v2h-4z"/><text x="1630" y="750.9951" font-family="sans-serif" font-size="14" textLength="114">ModuleConstant</text><rect width="108" height="46.2969" x="251" y="718" fill="#FFFFE0" stroke="#181818" stroke-width=".5" rx="2.5" ry="2.5"/><path fill="#FFFFE0" stroke="#181818" stroke-width=".5" d="M339 723h15v10h-15z"/><path fill="#FFFFE0" stroke="#181818" stroke-width=".5" d="M337 725h4v2h-4zm0 4h4v2h-4z"/><text x="266" y="750.9951" font-family="sans-serif" font-size="14" textLength="68">Dictionary</text><rect width="124" height="46.2969" x="328" y="588" fill="#FFFFE0" stroke="#181818" stroke-width=".5" rx="2.5" ry="2.5"/><path fill="#FFFFE0" stroke="#181818" stroke-width=".5" d="M432 593h15v10h-15z"/><path fill="#FFFFE0" stroke="#181818" stroke-width=".5" d="M430 595h4v2h-4zm0 4h4v2h-4z"/><text x="343" y="620.9951" font-family="sans-serif" font-size="14" textLength="84">MouseScroll</text><rect width="164" height="46.2969" x="129" y="588" fill="#FFFFE0" stroke="#181818" stroke-width=".5" rx="2.5" ry="2.5"/><path fill="#FFFFE0" stroke="#181818" stroke-width=".5" d="M273 593h15v10h-15z"/><path fill="#FFFFE0" stroke="#181818" stroke-width=".5" d="M271 595h4v2h-4zm0 4h4v2h-4z"/><text x="144" y="620.9951" font-family="sans-serif" font-size="14" textLength="124">LanguageRegistry</text><rect width="106" height="46.2969" x="707" y="41" fill="#F1F1F1" stroke="#181818" stroke-width=".5" rx="2.5" ry="2.5"/><path fill="#F1F1F1" stroke="#181818" stroke-width=".5" d="M793 46h15v10h-15z"/><path fill="#F1F1F1" stroke="#181818" stroke-width=".5" d="M791 48h4v2h-4zm0 4h4v2h-4z"/><text x="722" y="73.9951" font-family="sans-serif" font-size="14" textLength="66">Ribbon UI</text><rect width="141" height="46.2969" x="848.5" y="41" fill="#F1F1F1" stroke="#181818" stroke-width=".5" rx="2.5" ry="2.5"/><path fill="#F1F1F1" stroke="#181818" stroke-width=".5" d="M969.5 46h15v10h-15z"/><path fill="#F1F1F1" stroke="#181818" stroke-width=".5" d="M967.5 48h4v2h-4zm0 4h4v2h-4z"/><text x="863.5" y="73.9951" font-family="sans-serif" font-size="14" textLength="101">UDF Functions</text><rect width="140" height="46.2969" x="1025" y="41" fill="#F1F1F1" stroke="#181818" stroke-width=".5" rx="2.5" ry="2.5"/><path fill="#F1F1F1" stroke="#181818" stroke-width=".5" d="M1145 46h15v10h-15z"/><path fill="#F1F1F1" stroke="#181818" stroke-width=".5" d="M1143 48h4v2h-4zm0 4h4v2h-4z"/><text x="1040" y="73.9951" font-family="sans-serif" font-size="14" textLength="100">ThisWorkBook</text><rect width="77" height="46.2969" x="1451.5" y="588" fill="#F1F1F1" stroke="#181818" stroke-width=".5" rx="2.5" ry="2.5"/><path fill="#F1F1F1" stroke="#181818" stroke-width=".5" d="M1508.5 593h15v10h-15z"/><path fill="#F1F1F1" stroke="#181818" stroke-width=".5" d="M1506.5 595h4v2h-4zm0 4h4v2h-4z"/><text x="1466.5" y="620.9951" font-family="sans-serif" font-size="14" textLength="37">AI API</text><path fill="#FEFFDD" stroke="#181818" stroke-width=".5" d="M873.5 281v85.6641h154.73l115.66 77.2459-107.66-77.2459h32.27V291l-10-10h-185"/><path fill="#FEFFDD" stroke="#181818" stroke-width=".5" d="M1058.5 281v10h10l-10-10"/><text x="879.5" y="298.0669" font-family="sans-serif" font-size="13" textLength="129">Central orchestrator</text><text x="879.5" y="313.1997" font-family="sans-serif" font-size="13" textLength="118">- Validates API key</text><text x="879.5" y="328.3325" font-family="sans-serif" font-size="13" textLength="109">- Checks security</text><text x="879.5" y="343.4653" font-family="sans-serif" font-size="13" textLength="143">- Executes AI requests</text><text x="879.5" y="358.5981" font-family="sans-serif" font-size="13" textLength="174">- Handles batch processing</text><path fill="#FEFFDD" stroke="#181818" stroke-width=".5" d="M1403.5 705.5v70.5313h173V715.5l-10-10H1494l-4-71.5-4 71.5h-82.5"/><path fill="#FEFFDD" stroke="#181818" stroke-width=".5" d="M1566.5 705.5v10h10l-10-10"/><text x="1409.5" y="722.5669" font-family="sans-serif" font-size="13" textLength="152">External OpenAI-like API</text><text x="1409.5" y="737.6997" font-family="sans-serif" font-size="13" textLength="109">- Text generation</text><text x="1409.5" y="752.8325" font-family="sans-serif" font-size="13" textLength="79">- Translation</text><text x="1409.5" y="767.9653" font-family="sans-serif" font-size="13" textLength="117">- Formula creation</text><g stroke="#181818"><path fill="none" d="M747.79 87c-12.19 21.98-30.94 55.8-43.98 79.3"/><path fill="#181818" d="m701.28 170.85 7.8674-5.9248-5.4392 1.554-1.554-5.4392-.8742 9.81z"/></g><g stroke="#181818"><path fill="none" d="M706.82 67.2C634.48 71.75 502.15 85.65 398 128c-23.75 9.66-47.56 25.96-65.4 39.82"/><path fill="#181818" d="m328.66 170.92 9.5485-2.4136-5.6164-.6749.6749-5.6164-4.607 8.7049z"/></g><g stroke="#181818"><path fill="none" d="M706.75 81.82C673.53 93.13 630.34 109.35 594 128c-22.46 11.53-46.08 27.08-64.51 40.09"/><path fill="#181818" d="m525.4 170.99 9.6512-1.9634-5.5787-.9374.9374-5.5786L525.4 170.99z"/></g><g stroke="#181818"><path fill="none" d="M779.94 87c20.09 22.17 51.07 56.36 72.39 79.88"/><path fill="#181818" d="m855.93 170.85-3.1051-9.3466-.2625 5.6508-5.6508-.2626 9.0184 3.9584z"/></g><g stroke="#181818"><path fill="none" d="M706.72 68.02C586.84 75.3 299.26 95.67 208 128c-25.58 9.06-51.32 25.54-70.55 39.63"/><path fill="#181818" d="m133.2 170.79 9.6087-2.1616-5.5967-.8224.8223-5.5967L133.2 170.79z"/></g><g stroke="#181818"><path fill="none" d="M787.79 87.19C800.3 96.03 815.68 105.42 831 111c57.65 20.99 80.02-5.75 137 17 22.6 9.02 44.63 25.3 60.99 39.31"/><path fill="#181818" d="m1033.02 170.81-4.1584-8.9279.3884 5.6435-5.6435.3884 9.4135 2.896z"/></g><g stroke="#181818"><path fill="none" d="M832.46 219.41c-14.76 7.63-31.55 15.6-47.46 21.59-28.35 10.67-39.58 2.18-66 17-17.7 9.93-34.12 25.7-46.27 39.22"/><path fill="#181818" d="m669.42 300.96 8.9612-4.0862-5.6465.3429-.3429-5.6465-2.9718 9.3898zm167.55-83.9-9.8291.6233 5.3977 1.6925-1.6925 5.3977 6.1239-7.7135z"/></g><g stroke="#181818"><path fill="none" d="M102.56 217c-3.4 21.8-8.63 55.23-12.3 78.71"/><path fill="#181818" d="m89.46 300.85 5.34-8.2755-4.569 3.3353-3.3353-4.569L89.46 300.85z"/></g><g stroke="#181818"><path fill="none" d="M648.66 217.16C629.13 228.5 605.71 243.06 586 258c-15.57 11.8-31.63 26.51-44.44 38.95"/><path fill="#181818" d="m537.69 300.73 9.2276-3.4425-5.6565-.0571.0571-5.6566-3.6282 9.1562z"/></g><g stroke="#181818"><path fill="none" d="M290.79 217c-12.19 21.98-30.94 55.8-43.98 79.3"/><path fill="#181818" d="m244.28 300.85 7.8674-5.9248-5.4392 1.554-1.554-5.4392-.8742 9.81z"/></g><g stroke="#181818"><path fill="none" d="M475.03 217c-21.21 22.26-53.99 56.64-76.42 80.17"/><path fill="#181818" d="m395.11 300.85 9.1038-3.7577-5.6552.1374-.1373-5.6552-3.3113 9.2755z"/></g><g stroke="#181818"><path fill="none" d="M543.78 347.17c12.29 8.73 27.31 18.04 42.22 23.83 174.62 67.83 396.43 87.24 511.99 92.78"/><path fill="#181818" d="m1103.07 464.02-8.8079-4.4068 3.8131 4.1785-4.1785 3.8131 9.1733-3.5848z"/></g><g stroke="#181818"><path fill="none" d="M259.84 347.02c12.29 8.71 27.31 18.04 42.16 23.98 99.4 39.75 130.86 29.07 237 43 200.55 26.31 438.47 41.52 558.86 48.09"/><path fill="#181818" d="m1103.15 462.38-8.7699-4.482 3.7773 4.211-4.211 3.7773 9.2036-3.5063z"/></g><g stroke="#181818"><path fill="none" d="M403.14 347.06c12.61 8.61 27.88 17.85 42.86 23.94 117.12 47.62 489.24 78.38 652.25 89.89"/><path fill="#181818" d="m1103.48 461.26-8.6912-4.6328 3.704 4.2755-4.2756 3.704 9.2628-3.3467z"/></g><g stroke="#181818"><path fill="none" d="M954.57 87.04c15.81 8.82 34.99 18.23 53.43 23.96 28.88 8.97 112.96-3.71 135 17 46.21 43.42 45.11 125.18 40.83 167.72"/><path fill="#181818" d="m1183.3 300.71 4.9291-8.5267-4.4005 3.5547-3.5546-4.4005 3.026 9.3725z"/></g><g stroke="#181818"><path fill="none" d="M1179.38 347.03c-.71 24.69-1.84 64.75-2.6 91.47"/><path fill="#181818" d="m1176.63 443.66 4.2561-8.8817-4.1129 3.8838-3.8838-4.113 3.7406 9.1109z"/></g><g stroke="#181818"><path fill="none" d="M1189.09 490.26C1217.65 537.93 1286.01 647.2 1324 667c26.61 13.87 241.4-1.09 270 8 25.51 8.1 50.59 24.95 68.99 39.46"/><path fill="#181818" d="m1667.05 717.71-4.5173-8.7518.6171 5.6231-5.623.6172 9.5232 2.5115z"/></g><g stroke="#181818"><path fill="none" d="M1166.46 490.14c-3.53 9.09-7.22 19.82-9.46 29.86-4.61 20.67-6.58 44.58-7.42 62.55"/><path fill="#181818" d="m1149.36 587.93 4.3828-8.8199-4.1681 3.8245-3.8245-4.1681 3.6098 9.1635z"/></g><g stroke="#181818"><path fill="none" d="M1103.21 450.96C1036.84 435.73 937.07 409 856 371c-12.2-5.72-24.7-13.4-35.65-20.85"/><path fill="#181818" d="m816.07 347.2 5.1503 8.3949-1.0301-5.5623 5.5623-1.03L816.07 347.2z"/></g><g stroke="#181818"><path fill="none" d="M1102.72 619.02C959.55 640.73 523.91 706.8 364.36 731"/><path fill="#181818" d="m359.26 731.77 9.5019 2.5912-4.5595-3.3483 3.3482-4.5595-8.2906 5.3166z"/></g><path fill="none" stroke="#181818" stroke-dasharray="7,7" d="M1200.05 490.11c19.25 16.21 47.78 37.03 76.95 46.89 32.26 10.9 122.18-6.47 153 8 17.64 8.28 32.53 24.32 43.07 38.39"/><path fill="#181818" stroke="#181818" d="m1476.2 587.68-2.0626-9.6304-.88 5.588-5.588-.88 8.5306 4.9224z"/><text x="1278" y="533.0669" font-family="sans-serif" font-size="13" textLength="88">HTTP Request</text><path fill="none" stroke="#181818" stroke-dasharray="7,7" d="M911.31 217.11c16.57 9.18 36.97 18.85 56.69 23.89 49.77 12.72 423.36-16.85 462 17 48.61 42.58 57.84 249.29 59.59 324.54"/><path fill="#181818" stroke="#181818" d="m1489.7 587.72 3.7933-9.0891-3.9076 4.0904-4.0903-3.9075 4.2046 8.9062z"/><text x="1478" y="410.0669" font-family="sans-serif" font-size="13" textLength="88">HTTP Request</text><path fill="none" stroke="#181818" stroke-dasharray="7,7" d="M1126.86 195.12c111.55 1.56 321.47 10.37 380.14 53.88 104.67 77.62 109.3 169.54 55 288-8.41 18.34-23.48 34.75-37.68 47.34"/><path fill="#181818" stroke="#181818" d="m1520.35 587.79 9.425-2.8581-5.6418-.4111.4111-5.6419-4.1943 8.9111z"/><text x="1597" y="410.0669" font-family="sans-serif" font-size="13" textLength="88">HTTP Request</text><path fill="none" stroke="#181818" stroke-dasharray="7,7" d="M1360.81 347.05c11.62 32.06 34.71 93.15 59.19 142.95 16.33 33.21 38.23 69.73 53.16 93.65"/><path fill="#181818" stroke="#181818" d="m1475.86 587.96-1.4016-9.7486-1.2587 5.515-5.515-1.2586 8.1753 5.4922z"/><text x="1421" y="471.5669" font-family="sans-serif" font-size="13" textLength="88">HTTP Request</text><g stroke="#181818"><path fill="none" d="M910.83 217.04c16.63 9.29 37.22 19.07 57.17 23.96 50.19 12.3 413.65 2.24 465 8 19.4 2.18 24.92 1.63 43 9 106.41 43.36 162.75 38.25 218 139 57.23 104.37 23.87 254.86 6.5 315.82"/><path fill="#181818" d="m1699.07 717.75 6.3393-7.5374-4.9525 2.7336-2.7336-4.9525 1.3468 9.7563z"/></g><g stroke="#181818"><path fill="none" d="M1126.67 194.84c148.54.77 487.65 8.64 587.33 63.16 32.22 17.62 51 28.28 51 65v289c0 39.34-26.34 77.6-47.38 101.89"/><path fill="#181818" d="m1714.3 717.66 8.9534-4.1032-5.6458.3536-.3535-5.6458-2.9541 9.3954z"/></g><g stroke="#181818"><path fill="none" d="M1350.6 347.19c-5.18 60.62-10.21 229.86 83.4 310.81 27.04 23.39 126.36 4.88 160 17 24.82 8.94 49.56 25.42 67.97 39.55"/><path fill="#181818" d="m1666.03 717.71-4.6419-8.6864.6974 5.6137-5.6136.6975 9.5581 2.3752z"/></g><g stroke="#181818"><path fill="none" d="M506.11 347.36c-22.86 51.72-79.32 179.43-104.11 235.5"/><path fill="#181818" d="m399.84 587.74 7.3067-6.604-5.2787 2.0338-2.0337-5.2787.0057 9.8489z"/></g><g stroke="#181818"><path fill="none" d="M244.4 347.36c28.73 51.82 99.76 179.95 130.74 235.84"/><path fill="#181818" d="m377.66 587.74-.8606-9.8112-1.5616 5.4371-5.437-1.5616 7.8592 5.9357z"/></g><g stroke="#181818"><path fill="none" d="M375.26 347.36c2.89 51.62 10.04 178.92 13.2 235.16"/><path fill="#181818" d="m388.75 587.74 3.48-9.2135-3.7652 4.2216-4.2217-3.7652 4.5069 8.7571z"/></g><g stroke="#181818"><path fill="none" d="M109.6 347.13c55.42 51.95 193.66 181.55 252.82 237.02"/><path fill="#181818" d="m366.2 587.69-3.849-9.0656.1942 5.6535-5.6535.1942L366.2 587.69z"/></g><g stroke="#181818"><path fill="none" d="M227.16 634c16.21 22.08 41.18 56.08 58.45 79.59"/><path fill="#181818" d="m288.74 717.85-2.1011-9.6221-.8576 5.5914-5.5914-.8575 8.5501 4.8882z"/></g><g stroke="#181818"><path fill="none" d="M230.35 347.36c-3.8 51.62-13.18 178.92-17.33 235.16"/><path fill="#181818" d="m212.64 587.74 4.6328-8.6912-4.2755 3.704-3.704-4.2756 3.3467 9.2628z"/></g><g stroke="#181818"><path fill="none" d="M1153.86 87.06c17.87 8.36 36.81 19.04 52.14 31.94 61.71 51.94 110.92 135.17 133.52 177.47"/><path fill="#181818" d="m1341.89 300.93-.6861-9.8249-1.6579 5.4084-5.4085-1.658 7.7525 6.0745z"/></g></svg>